<svg xmlns="http://www.w3.org/2000/svg" width="1200" height="800" viewBox="0 0 1200 800">
  <rect width="1200" height="800" rx="36" fill="#eef2ff"/>
  <rect x="120" y="96" width="960" height="608" rx="28" fill="#ffffff" stroke="#c7d2fe" stroke-width="3"/>
  <!-- Nav bar -->
  <rect x="120" y="96" width="960" height="72" rx="28" fill="#ffffff"/>
  <rect x="156" y="122" width="140" height="20" rx="10" fill="#4f46e5"/>
  <circle cx="780" cy="132" r="10" fill="#e0e7ff"/>
  <circle cx="810" cy="132" r="10" fill="#e0e7ff"/>
  <rect x="848" y="118" width="100" height="28" rx="14" fill="#4f46e5"/>
  <rect x="964" y="118" width="80" height="28" rx="14" fill="#e0e7ff"/>
  <!-- Hero banner -->
  <rect x="156" y="200" width="888" height="140" rx="24" fill="#4f46e5"/>
  <rect x="192" y="226" width="320" height="26" rx="13" fill="#ffffff"/>
  <rect x="192" y="266" width="440" height="16" rx="8" fill="#c7d2fe"/>
  <rect x="192" y="296" width="150" height="28" rx="14" fill="#fbbf24"/>
  <!-- Product cards -->
  <rect x="156" y="376" width="204" height="140" rx="20" fill="#f5f3ff"/>
  <rect x="156" y="376" width="204" height="76" rx="20" fill="#a5b4fc"/>
  <rect x="176" y="474" width="120" height="12" rx="6" fill="#6366f1"/>
  <rect x="176" y="496" width="84" height="10" rx="5" fill="#c7d2fe"/>
  <rect x="396" y="376" width="204" height="140" rx="20" fill="#f5f3ff"/>
  <rect x="396" y="376" width="204" height="76" rx="20" fill="#67e8f9"/>
  <rect x="416" y="474" width="120" height="12" rx="6" fill="#0891b2"/>
  <rect x="416" y="496" width="84" height="10" rx="5" fill="#cffafe"/>
  <rect x="636" y="376" width="204" height="140" rx="20" fill="#f5f3ff"/>
  <rect x="636" y="376" width="204" height="76" rx="20" fill="#fbbf24"/>
  <rect x="656" y="474" width="120" height="12" rx="6" fill="#d97706"/>
  <rect x="656" y="496" width="84" height="10" rx="5" fill="#fef3c7"/>
  <rect x="876" y="376" width="168" height="140" rx="20" fill="#f5f3ff"/>
  <rect x="876" y="376" width="168" height="76" rx="20" fill="#f0abfc"/>
  <rect x="896" y="474" width="110" height="12" rx="6" fill="#c026d3"/>
  <rect x="896" y="496" width="76" height="10" rx="5" fill="#fae8ff"/>
</svg>
